<svg xmlns="http://www.w3.org/2000/svg" version="1.1" viewBox="-5.0 -10.0 110.0 135.0">
 <path d="m47.246 21.266c-2.5195 3.7578-4.0469 8.7969-4.25 14.148h-7.8516c0.52344-7.0859 5.5703-12.863 12.102-14.148zm17.613 14.148h-7.8516c-0.20312-5.3516-1.7344-10.391-4.25-14.148 6.5273 1.2852 11.574 7.0625 12.102 14.148zm-12.121 16.613c2.5234-3.7539 4.0586-8.7969 4.2656-14.152h7.8555c-0.53125 7.0938-5.5781 12.871-12.121 14.152zm1.8008-14.152h-9.0781c0.22266 5.3633 1.8672 10.336 4.5391 13.746 2.6719-3.4102 4.3164-8.3828 4.5391-13.746zm0-2.4609c-0.21484-5.3672-1.8633-10.348-4.5391-13.762-2.6758 3.4141-4.3242 8.3945-4.5391 13.762zm-19.398 2.4609h7.8555c0.20703 5.3555 1.7422 10.395 4.2656 14.152-6.543-1.2812-11.59-7.0586-12.121-14.152zm14.859 16.883c9.5781 0 17.367-8.125 17.367-18.113 0-9.9844-7.7891-18.109-17.367-18.109s-17.367 8.125-17.367 18.113c0 9.9844 7.7891 18.109 17.367 18.109zm8.4688 20.945c-5.4297 0.375-11.512 0.375-16.941 0-3.1328-4.9727-6.5977-10.574-9.6367-16.047 11.32 1.3906 24.883 1.3945 36.203 0.003906-3.0352 5.4688-6.4922 11.07-9.625 16.043zm19.883-5.2539c0-0.63672-2.0781-2.75-11.152-4.2578-1.8555 3.1445-3.7852 6.2695-5.6602 9.2617 3.3633-0.32812 6.4453-0.80469 9.1016-1.4141 6.3242-1.4531 7.7109-3.082 7.7109-3.5898zm-22.336 9.1367c-1.9805 3.125-3.6953 5.8281-5 8.0156-0.46094 0.77344-1.5664 0.77344-2.0273 0-1.418-2.375-3.8359-6.1602-5.8359-9.332 4.4727 0.23828 9.2227 0.23828 13.695 0-0.28125 0.44531-0.5625 0.88281-0.83203 1.3164zm-26.656-5.5508c2.6562 0.60938 5.7383 1.0859 9.0938 1.4141-1.875-2.9883-3.8047-6.1133-5.6641-9.2578-9.0664 1.5078-11.141 3.6172-11.141 4.2578 0 0.50781 1.3867 2.1367 7.7109 3.5859zm-6.9531-18.539c-7.8281-1.8789-10.605-4.1367-10.605-5.5 0-1.3828 2.7695-3.6016 10.469-5.4648 1.0938 3.5938 2.918 7.6914 5.1289 11.98-1.7656-0.30078-3.4336-0.64062-4.9922-1.0156zm27.594-43.68c-14.555 0-26.395 11.84-26.395 26.395 0 4.5078 2.9062 11.402 6.8281 18.77 12.016 1.6758 27.094 1.6758 39.113 0 3.9297-7.3789 6.8477-14.281 6.8477-18.77 0-14.555-11.84-26.395-26.395-26.395zm38.203 38.18c0 1.3633-2.7773 3.6211-10.605 5.5-1.5625 0.375-3.2383 0.71484-5.0078 1.0156 2.2148-4.293 4.043-8.3906 5.1406-11.984 7.6992 1.8711 10.473 4.0898 10.473 5.4688zm-10.031 7.8984c8.293-1.9922 12.496-4.6484 12.496-7.8945 0-3.2305-4.1406-5.8672-12.301-7.8477 0.32031-1.4258 0.49219-2.7461 0.49219-3.9375 0-15.914-12.945-28.859-28.859-28.859-15.91 0-28.855 12.945-28.855 28.855 0 1.1914 0.17188 2.5156 0.48828 3.9414-8.1602 1.9766-12.297 4.6172-12.297 7.8438 0 5.543 12.379 8.1602 19.504 9.2422 0.83984 1.5469 1.7188 3.1172 2.625 4.6836-5.9648 1.0742-12.273 3.0391-12.273 6.5273 0 5.4258 15.172 7.1562 20.918 7.6172 2.1758 3.4414 5.1289 8.0547 6.7695 10.797 1.418 2.375 4.8359 2.375 6.2539 0 1.6367-2.7383 4.5938-7.3672 6.7617-10.797 5.7461-0.46094 20.926-2.1953 20.926-7.6211 0-3.4922-6.3203-5.4531-12.289-6.5273 0.90234-1.5664 1.7812-3.1289 2.6211-4.6797 2.5078-0.37891 4.8633-0.82812 7.0195-1.3438z" fill-rule="evenodd"/>
<text x="0.0" y="117.5" font-size="5.0" font-weight="bold" font-family="Arbeit Regular, Helvetica, Arial-Unicode, Arial, Sans-serif" fill="#000000">Created by diyah farida</text><text x="0.0" y="122.5" font-size="5.0" font-weight="bold" font-family="Arbeit Regular, Helvetica, Arial-Unicode, Arial, Sans-serif" fill="#000000">from Noun Project</text></svg>